<svg width="269" height="90" viewBox="0 0 269 90" fill="none" xmlns="http://www.w3.org/2000/svg">
<path d="M48.912 55.936L48.528 56.064L47.824 56.192L35.536 56.128L35.088 55.936C34.8747 55.8507 34.768 55.744 34.768 55.616C34.768 55.4453 35.1093 55.232 35.792 54.976C36.3467 54.976 36.624 54.6773 36.624 54.08C36.624 53.3973 36.3253 52.416 35.728 51.136L30.928 38.4C30.5867 37.6747 30.0747 37.312 29.392 37.312H17.04C16.1013 37.312 15.5893 37.696 15.504 38.464L11.28 51.136L11.152 51.712L11.024 52.544C11.024 53.9947 11.8133 54.976 13.392 55.488L14.096 55.744C14.3093 55.8293 14.4587 55.936 14.544 56.064L14.16 56.128L13.584 56.192L1.296 56.128C0.869333 56.128 0.634667 56.0427 0.592 55.872L0.976 55.68L1.488 55.488C3.45067 55.232 4.88 54.5493 5.776 53.44C6.62933 52.416 7.22667 51.456 7.568 50.56L23.056 8.256C23.0987 8.21333 23.1627 8.08533 23.248 7.872C23.248 7.82933 23.2907 7.70133 23.376 7.488C23.5467 7.18933 23.76 7.04 24.016 7.04C24.4 7.04 24.72 7.488 24.976 8.384L41.232 49.984C41.4453 50.7947 42.064 51.904 43.088 53.312C43.5147 53.952 44.1333 54.4853 44.944 54.912C45.712 55.296 46.5867 55.488 47.568 55.488L48.4 55.68C48.6133 55.7227 48.784 55.808 48.912 55.936ZM29.392 34.56C29.392 34.4747 29.3493 34.3467 29.264 34.176L23.632 17.856C23.4613 17.0453 23.2267 16.64 22.928 16.64C22.8 16.64 22.672 16.7893 22.544 17.088L22.352 17.792L17.04 33.92C16.912 33.92 16.848 34.112 16.848 34.496C16.848 34.8373 17.1253 35.008 17.68 35.008H28.56C29.1147 35.008 29.392 34.8587 29.392 34.56ZM86.338 8.32C86.338 8.448 85.9753 8.64 85.25 8.896C84.738 8.93866 83.97 9.25867 82.946 9.856C81.922 10.4107 81.09 11.4133 80.45 12.864L62.274 55.744C61.8473 56.6827 61.4207 57.152 60.994 57.152C60.6953 57.152 60.4393 56.9813 60.226 56.64L59.842 55.872L43.138 13.824C42.6687 11.904 41.794 10.6453 40.514 10.048C39.234 9.408 38.146 9.024 37.25 8.896L36.674 8.64C36.546 8.59733 36.4393 8.46933 36.354 8.256C36.354 8.128 36.6527 8.02133 37.25 7.936L39.938 8.192L44.354 8.32C46.402 8.32 48.642 8.192 51.074 7.936C51.6287 7.936 51.9273 8 51.97 8.128C51.97 8.256 51.586 8.512 50.818 8.896C50.6473 8.93866 50.2633 9.216 49.666 9.728C49.1967 10.1973 48.962 10.8587 48.962 11.712C48.962 12.2667 49.154 13.0347 49.538 14.016L62.53 48.384L76.29 12.992C76.5887 12.4373 76.738 11.8827 76.738 11.328C76.738 10.56 76.4393 9.94133 75.842 9.472C75.074 9.088 74.5407 8.87466 74.242 8.832C73.4313 8.61866 73.0047 8.46933 72.962 8.384C72.962 8.256 73.0687 8.14933 73.282 8.064L73.922 7.936L76.482 8.256C77.7193 8.384 79.0207 8.448 80.386 8.448C82.2633 8.448 83.9273 8.27733 85.378 7.936C86.018 7.936 86.338 8.064 86.338 8.32ZM136.461 32.704L136.205 32.896L135.373 33.344C134.05 33.6427 133.154 34.2827 132.685 35.264C132.301 36.3307 132.109 37.0987 132.109 37.568L132.045 51.328C132.045 52.9493 131.533 54.0587 130.509 54.656C129.357 55.3387 128.482 55.7013 127.885 55.744C126.05 56.256 124.258 56.5973 122.509 56.768C120.29 56.9813 118.797 57.088 118.029 57.088C109.751 57.088 103.458 55.488 99.1485 52.288C94.7538 49.1307 91.9592 45.6747 90.7645 41.92C89.5272 38.08 88.9085 34.8373 88.9085 32.192C88.9085 30.4427 89.0152 28.7147 89.2285 27.008C89.4845 25.5147 89.8685 24.0213 90.3805 22.528C91.3192 19.7973 92.7912 17.472 94.7965 15.552C98.6365 11.84 102.391 9.51466 106.061 8.576C109.773 7.63733 112.589 7.168 114.509 7.168L115.085 7.104H116.685C121.933 7.104 126.839 7.65866 131.405 8.768C131.533 8.768 131.746 8.896 132.045 9.152C132.343 9.32266 132.493 9.62133 132.493 10.048C132.493 10.432 132.407 10.7307 132.237 10.944L131.981 18.432C131.853 19.1147 131.703 19.456 131.533 19.456C131.405 19.456 131.277 19.3067 131.149 19.008L130.829 18.24C130.103 14.8267 128.375 12.48 125.645 11.2C122.829 9.92 119.885 9.28 116.812 9.28H116.045L115.341 9.344C114.829 9.344 114.551 9.36533 114.509 9.408C113.399 9.408 111.842 9.6 109.837 9.984C107.831 10.368 105.677 11.264 103.373 12.672C101.026 14.1227 98.9565 16.448 97.1645 19.648C95.4152 22.8907 94.5405 27.072 94.5405 32.192C94.5405 33.3013 94.7325 34.9867 95.1165 37.248C95.4578 39.4667 96.3538 41.8987 97.8045 44.544C99.1698 47.1893 101.431 49.5147 104.589 51.52C107.703 53.5253 111.735 54.528 116.685 54.528H118.093C120.823 54.528 122.594 54.336 123.405 53.952C123.831 53.952 124.386 53.7387 125.069 53.312C125.837 52.8853 126.37 52.096 126.669 50.944L126.605 38.272C126.605 36.3093 126.05 35.008 124.941 34.368C124.77 34.2827 124.578 34.1547 124.365 33.984C123.981 33.7707 123.682 33.6213 123.469 33.536C123.085 33.3653 122.658 33.28 122.189 33.28C121.421 33.28 120.994 33.1733 120.909 32.96C120.951 32.9173 120.972 32.896 120.972 32.896C121.058 32.8107 121.186 32.7253 121.357 32.64L122.125 32.384L124.812 32.512L129.229 32.64C132.045 32.64 134.071 32.5547 135.309 32.384C136.077 32.384 136.461 32.4907 136.461 32.704ZM189.151 8.32C189.151 8.448 188.788 8.64 188.063 8.896C187.551 8.93866 186.783 9.25867 185.759 9.856C184.735 10.4107 183.903 11.4133 183.263 12.864L165.087 55.744C164.66 56.6827 164.233 57.152 163.807 57.152C163.508 57.152 163.252 56.9813 163.039 56.64L162.655 55.872L145.951 13.824C145.481 11.904 144.607 10.6453 143.327 10.048C142.047 9.408 140.959 9.024 140.062 8.896L139.486 8.64C139.358 8.59733 139.252 8.46933 139.166 8.256C139.166 8.128 139.465 8.02133 140.062 7.936L142.751 8.192L147.167 8.32C149.215 8.32 151.455 8.192 153.887 7.936C154.441 7.936 154.74 8 154.783 8.128C154.783 8.256 154.399 8.512 153.631 8.896C153.46 8.93866 153.076 9.216 152.479 9.728C152.009 10.1973 151.775 10.8587 151.775 11.712C151.775 12.2667 151.967 13.0347 152.351 14.016L165.343 48.384L179.103 12.992C179.401 12.4373 179.551 11.8827 179.551 11.328C179.551 10.56 179.252 9.94133 178.655 9.472C177.887 9.088 177.353 8.87466 177.055 8.832C176.244 8.61866 175.817 8.46933 175.775 8.384C175.775 8.256 175.881 8.14933 176.095 8.064L176.735 7.936L179.295 8.256C180.532 8.384 181.833 8.448 183.199 8.448C185.076 8.448 186.74 8.27733 188.191 7.936C188.831 7.936 189.151 8.064 189.151 8.32ZM218.601 43.84L218.537 44.608C218.537 45.0773 218.494 45.696 218.409 46.464C218.324 47.1467 218.217 47.7013 218.089 48.128C217.833 49.1947 217.406 50.1973 216.809 51.136C215.7 52.8853 214.377 54.1653 212.841 54.976C211.177 55.8293 209.577 56.384 208.041 56.64C206.505 56.9387 205.054 57.088 203.689 57.088H203.305C203.092 57.088 202.921 57.0667 202.793 57.024H202.345L200.297 56.96C200.041 56.9173 199.785 56.896 199.529 56.896C199.358 56.8533 199.23 56.832 199.145 56.832C198.846 56.704 198.59 56.64 198.377 56.64C197.268 56.4267 196.436 56.192 195.881 55.936C194.814 55.6373 194.281 55.0187 194.281 54.08V46.528V45.76C194.281 45.4613 194.366 45.2907 194.537 45.248C194.622 45.248 194.857 45.6747 195.241 46.528L195.369 47.616C195.412 47.7013 195.433 47.808 195.433 47.936C195.476 48.064 195.497 48.1707 195.497 48.256C195.54 48.4267 195.604 48.7253 195.689 49.152C196.03 50.304 196.756 51.4773 197.865 52.672C199.06 53.8667 200.873 54.592 203.305 54.848L203.881 54.912L204.905 54.976C206.356 54.976 207.721 54.7413 209.001 54.272C210.196 53.8453 211.326 52.864 212.393 51.328C213.417 49.8347 213.929 47.68 213.929 44.864C213.929 43.328 213.417 41.7707 212.393 40.192C211.284 38.528 210.004 37.0133 208.553 35.648C207.102 34.3253 205.46 32.9813 203.625 31.616C201.364 29.4827 199.678 27.5413 198.569 25.792C197.502 23.9147 196.734 22.1867 196.265 20.608C196.18 20.2667 196.052 19.6267 195.881 18.688L195.817 18.304C195.732 17.3653 195.689 16.64 195.689 16.128C195.689 15.744 195.732 15.2107 195.817 14.528C195.945 13.9307 196.137 13.2907 196.393 12.608C196.905 11.2853 198.036 10.0053 199.785 8.768C201.492 7.57333 204.073 6.976 207.529 6.976H208.361C208.745 6.976 209.001 6.99733 209.129 7.04C211.945 7.04 214.142 7.33866 215.721 7.936C216.233 7.936 216.617 8.064 216.873 8.32C217.129 8.66133 217.278 8.896 217.321 9.024V15.616C217.193 16.1707 217.044 16.448 216.873 16.448C216.745 16.448 216.617 16.2987 216.489 16L216.233 15.36C216.062 13.824 215.422 12.608 214.313 11.712C213.118 10.7733 212.073 10.176 211.177 9.92C210.153 9.62133 209.342 9.42933 208.745 9.344C205.118 9.344 202.686 10.1547 201.449 11.776C200.254 13.3547 199.657 14.9973 199.657 16.704C199.657 17.472 199.87 18.4107 200.297 19.52C200.766 20.7573 201.705 22.1227 203.113 23.616C204.521 25.1947 206.569 26.9013 209.257 28.736C209.897 29.0347 210.921 29.7173 212.329 30.784C213.609 31.7653 214.996 33.3867 216.489 35.648C216.916 36.3307 217.214 36.864 217.385 37.248C217.684 37.8453 217.918 38.464 218.089 39.104C218.43 40.4693 218.601 41.8347 218.601 43.2V43.84ZM266.364 9.088L266.236 14.656C266.236 15.424 266.172 15.8507 266.044 15.936C265.958 15.936 265.809 15.8293 265.596 15.616L265.276 15.04C263.91 12.0107 261.649 10.496 258.492 10.496H249.212V49.728C249.212 50.88 249.489 52.032 250.044 53.184C250.641 54.336 251.793 55.104 253.5 55.488L254.588 55.68C255.014 55.7227 255.228 55.808 255.228 55.936L254.78 56.064L253.756 56.192L246.46 56.128H241.852H240.956C240.614 56.128 240.38 56.1493 240.252 56.192C239.356 56.192 238.908 56.1493 238.908 56.064L239.292 55.872C239.377 55.8293 239.633 55.7227 240.06 55.552L240.444 55.424C240.614 55.424 240.764 55.4027 240.892 55.36C240.977 55.36 241.169 55.296 241.468 55.168L241.724 55.04C242.108 54.8267 242.556 54.3147 243.068 53.504C243.281 53.1627 243.473 52.6507 243.644 51.968C243.686 51.84 243.708 51.6693 243.708 51.456C243.708 51.2853 243.729 51.136 243.772 51.008C243.814 50.7947 243.836 50.4107 243.836 49.856V10.496H234.94C233.617 10.496 232.188 10.752 230.652 11.264C229.116 11.776 227.857 12.864 226.876 14.528C226.449 15.2107 226.15 15.552 225.98 15.552L225.852 15.168V14.464L227.068 8.64C227.068 8.29867 227.132 7.97866 227.26 7.68C227.388 7.296 227.665 7.104 228.092 7.104C228.305 7.104 228.625 7.25333 229.052 7.552L237.308 7.808L250.684 7.936L257.532 7.872L264.636 7.744L265.02 7.552L265.596 7.424C266.108 7.424 266.364 7.97866 266.364 9.088Z" fill="black"/>
<path d="M18.499 83.7012C18.499 83.7598 18.4814 83.8125 18.4463 83.8594C18.4111 83.9004 18.3496 83.9355 18.2617 83.9648C18.1797 83.9941 18.0684 84.0146 17.9277 84.0264C17.7871 84.0439 17.6084 84.0527 17.3916 84.0527C17.1807 84.0527 17.002 84.0439 16.8555 84.0264C16.7148 84.0146 16.6006 83.9941 16.5127 83.9648C16.4248 83.9355 16.3633 83.9004 16.3281 83.8594C16.2988 83.8125 16.2842 83.7598 16.2842 83.7012V77.3906H13.3223V83.7012C13.3223 83.7598 13.3018 83.8125 13.2607 83.8594C13.2256 83.9004 13.1641 83.9355 13.0762 83.9648C12.9941 83.9941 12.8828 84.0146 12.7422 84.0264C12.6016 84.0439 12.4229 84.0527 12.2061 84.0527C11.9893 84.0527 11.8105 84.0439 11.6699 84.0264C11.5293 84.0146 11.415 83.9941 11.3271 83.9648C11.2451 83.9355 11.1865 83.9004 11.1514 83.8594C11.1221 83.8125 11.1074 83.7598 11.1074 83.7012V76.2744C11.1074 76.04 11.1572 75.8643 11.2568 75.7471C11.3564 75.624 11.5117 75.5625 11.7227 75.5625H17.8926C18.0977 75.5625 18.25 75.624 18.3496 75.7471C18.4492 75.8643 18.499 76.04 18.499 76.2744V83.7012ZM27.4023 83.7275C27.4023 83.8096 27.373 83.874 27.3145 83.9209C27.2559 83.9678 27.1621 84 27.0332 84.0176C26.9102 84.041 26.7256 84.0527 26.4795 84.0527C26.2158 84.0527 26.0225 84.041 25.8994 84.0176C25.7822 84 25.6973 83.9678 25.6445 83.9209C25.5977 83.874 25.5742 83.8096 25.5742 83.7275V83.1035C25.252 83.4492 24.8828 83.7188 24.4668 83.9121C24.0566 84.1055 23.5996 84.2021 23.0957 84.2021C22.6797 84.2021 22.2959 84.1465 21.9443 84.0352C21.5986 83.9297 21.2969 83.7715 21.0391 83.5605C20.7871 83.3438 20.5908 83.0771 20.4502 82.7607C20.3096 82.4443 20.2393 82.0752 20.2393 81.6533C20.2393 81.1963 20.3271 80.8008 20.5029 80.4668C20.6846 80.127 20.9512 79.8486 21.3027 79.6318C21.6602 79.4092 22.1025 79.2451 22.6299 79.1396C23.1572 79.0342 23.7695 78.9814 24.4668 78.9814H25.2314V78.5068C25.2314 78.2607 25.2051 78.0469 25.1523 77.8652C25.1055 77.6777 25.0234 77.5225 24.9062 77.3994C24.7949 77.2764 24.6426 77.1855 24.4492 77.127C24.2617 77.0684 24.0273 77.0391 23.7461 77.0391C23.377 77.0391 23.0459 77.0801 22.7529 77.1621C22.4658 77.2441 22.2109 77.335 21.9883 77.4346C21.7656 77.5342 21.5781 77.625 21.4258 77.707C21.2793 77.7891 21.1592 77.8301 21.0654 77.8301C21.001 77.8301 20.9424 77.8096 20.8896 77.7686C20.8428 77.7275 20.8018 77.6689 20.7666 77.5928C20.7373 77.5166 20.7139 77.4229 20.6963 77.3115C20.6787 77.2002 20.6699 77.0771 20.6699 76.9424C20.6699 76.7607 20.6846 76.6172 20.7139 76.5117C20.7432 76.4062 20.7988 76.3125 20.8809 76.2305C20.9629 76.1426 21.1064 76.0488 21.3115 75.9492C21.5166 75.8438 21.7568 75.7471 22.0322 75.6592C22.3076 75.5713 22.6064 75.501 22.9287 75.4482C23.2568 75.3896 23.5938 75.3604 23.9395 75.3604C24.5547 75.3604 25.0791 75.4219 25.5127 75.5449C25.9521 75.6621 26.3125 75.8467 26.5938 76.0986C26.875 76.3447 27.0801 76.6641 27.209 77.0566C27.3379 77.4492 27.4023 77.915 27.4023 78.4541V83.7275ZM25.2314 80.3701H24.3877C24.0303 80.3701 23.7256 80.3965 23.4736 80.4492C23.2217 80.502 23.0166 80.5811 22.8584 80.6865C22.7002 80.792 22.583 80.9209 22.5068 81.0732C22.4365 81.2197 22.4014 81.3896 22.4014 81.583C22.4014 81.9111 22.5039 82.1689 22.709 82.3564C22.9199 82.5439 23.21 82.6377 23.5791 82.6377C23.8896 82.6377 24.1738 82.5586 24.4316 82.4004C24.6953 82.2422 24.9619 82.0107 25.2314 81.7061V80.3701ZM37.2109 83.7012C37.2109 83.7598 37.1934 83.8125 37.1582 83.8594C37.123 83.9004 37.0645 83.9355 36.9824 83.9648C36.9004 83.9941 36.7861 84.0146 36.6396 84.0264C36.499 84.0439 36.3232 84.0527 36.1123 84.0527C35.8955 84.0527 35.7139 84.0439 35.5674 84.0264C35.4268 84.0146 35.3154 83.9941 35.2334 83.9648C35.1514 83.9355 35.0928 83.9004 35.0576 83.8594C35.0225 83.8125 35.0049 83.7598 35.0049 83.7012V80.6162H31.832V83.7012C31.832 83.7598 31.8145 83.8125 31.7793 83.8594C31.7441 83.9004 31.6826 83.9355 31.5947 83.9648C31.5127 83.9941 31.4014 84.0146 31.2607 84.0264C31.1201 84.0439 30.9414 84.0527 30.7246 84.0527C30.5078 84.0527 30.3291 84.0439 30.1885 84.0264C30.0479 84.0146 29.9336 83.9941 29.8457 83.9648C29.7637 83.9355 29.7051 83.9004 29.6699 83.8594C29.6348 83.8125 29.6172 83.7598 29.6172 83.7012V75.8613C29.6172 75.8027 29.6348 75.7529 29.6699 75.7119C29.7051 75.665 29.7637 75.627 29.8457 75.5977C29.9336 75.5684 30.0479 75.5479 30.1885 75.5361C30.3291 75.5186 30.5078 75.5098 30.7246 75.5098C30.9414 75.5098 31.1201 75.5186 31.2607 75.5361C31.4014 75.5479 31.5127 75.5684 31.5947 75.5977C31.6826 75.627 31.7441 75.665 31.7793 75.7119C31.8145 75.7529 31.832 75.8027 31.832 75.8613V78.7969H35.0049V75.8613C35.0049 75.8027 35.0225 75.7529 35.0576 75.7119C35.0928 75.665 35.1514 75.627 35.2334 75.5977C35.3154 75.5684 35.4268 75.5479 35.5674 75.5361C35.7139 75.5186 35.8955 75.5098 36.1123 75.5098C36.3232 75.5098 36.499 75.5186 36.6396 75.5361C36.7861 75.5479 36.9004 75.5684 36.9824 75.5977C37.0645 75.627 37.123 75.665 37.1582 75.7119C37.1934 75.7529 37.2109 75.8027 37.2109 75.8613V83.7012ZM45.376 82.4531C45.376 82.6055 45.3701 82.7344 45.3584 82.8398C45.3525 82.9395 45.3408 83.0244 45.3232 83.0947C45.3115 83.165 45.2939 83.2236 45.2705 83.2705C45.2529 83.3115 45.209 83.3672 45.1387 83.4375C45.0684 83.502 44.9482 83.584 44.7783 83.6836C44.6084 83.7773 44.415 83.8623 44.1982 83.9385C43.9814 84.0146 43.7441 84.0762 43.4863 84.123C43.2344 84.1699 42.9736 84.1934 42.7041 84.1934C42.1006 84.1934 41.5645 84.0996 41.0957 83.9121C40.6328 83.7246 40.2432 83.4492 39.9268 83.0859C39.6104 82.7168 39.3701 82.2686 39.2061 81.7412C39.0479 81.2139 38.9688 80.6104 38.9688 79.9307C38.9688 79.1455 39.0654 78.4688 39.2588 77.9004C39.458 77.3262 39.7334 76.8516 40.085 76.4766C40.4365 76.1016 40.8525 75.8232 41.333 75.6416C41.8135 75.46 42.3408 75.3691 42.915 75.3691C43.1494 75.3691 43.3779 75.3896 43.6006 75.4307C43.8291 75.4717 44.04 75.5273 44.2334 75.5977C44.4326 75.668 44.6084 75.7471 44.7607 75.835C44.9189 75.9229 45.0303 75.999 45.0947 76.0635C45.1592 76.1279 45.2031 76.1836 45.2266 76.2305C45.2559 76.2715 45.2764 76.3271 45.2881 76.3975C45.3057 76.4678 45.3174 76.5557 45.3232 76.6611C45.335 76.7607 45.3408 76.8838 45.3408 77.0303C45.3408 77.3701 45.3115 77.6104 45.2529 77.751C45.1943 77.8857 45.1182 77.9531 45.0244 77.9531C44.9248 77.9531 44.8193 77.9121 44.708 77.8301C44.5967 77.748 44.4648 77.6572 44.3125 77.5576C44.1602 77.458 43.9785 77.3672 43.7676 77.2852C43.5566 77.2031 43.3047 77.1621 43.0117 77.1621C42.4375 77.1621 41.998 77.3848 41.6934 77.8301C41.3887 78.2695 41.2363 78.917 41.2363 79.7725C41.2363 80.1943 41.2744 80.5664 41.3506 80.8887C41.4268 81.2109 41.5381 81.4805 41.6846 81.6973C41.8369 81.9141 42.0244 82.0781 42.2471 82.1895C42.4756 82.2949 42.7393 82.3477 43.0381 82.3477C43.3428 82.3477 43.6035 82.3037 43.8203 82.2158C44.043 82.1221 44.2363 82.0195 44.4004 81.9082C44.5645 81.7969 44.7021 81.6973 44.8135 81.6094C44.9248 81.5156 45.0186 81.4688 45.0947 81.4688C45.1475 81.4688 45.1914 81.4834 45.2266 81.5127C45.2617 81.542 45.2881 81.5977 45.3057 81.6797C45.3291 81.7559 45.3467 81.8555 45.3584 81.9785C45.3701 82.1016 45.376 82.2598 45.376 82.4531ZM54.7891 83.7275C54.7891 83.7861 54.7715 83.8359 54.7363 83.877C54.707 83.918 54.6514 83.9531 54.5693 83.9824C54.4873 84.0059 54.376 84.0234 54.2354 84.0352C54.1006 84.0469 53.9277 84.0527 53.7168 84.0527C53.5059 84.0527 53.3271 84.0469 53.1807 84.0352C53.04 84.0234 52.9229 84.0059 52.8291 83.9824C52.7412 83.9531 52.6768 83.918 52.6357 83.877C52.6006 83.8359 52.583 83.7861 52.583 83.7275V80.2295C52.583 79.9834 52.5889 79.7285 52.6006 79.4648C52.6182 79.2012 52.6416 78.9434 52.6709 78.6914C52.5303 78.9375 52.3779 79.1807 52.2139 79.4209C52.0498 79.6553 51.8828 79.8896 51.7129 80.124L49.0674 83.7188C49.0146 83.7832 48.9648 83.8389 48.918 83.8857C48.8711 83.9268 48.8096 83.9619 48.7334 83.9912C48.6631 84.0146 48.5723 84.0293 48.4609 84.0352C48.3496 84.0469 48.2061 84.0527 48.0303 84.0527C47.8193 84.0527 47.6465 84.0469 47.5117 84.0352C47.3828 84.0234 47.2773 84.0059 47.1953 83.9824C47.1191 83.9531 47.0635 83.918 47.0283 83.877C46.999 83.8301 46.9844 83.7773 46.9844 83.7188V75.8525C46.9844 75.7998 46.999 75.7529 47.0283 75.7119C47.0635 75.665 47.1221 75.627 47.2041 75.5977C47.292 75.5684 47.4033 75.5479 47.5381 75.5361C47.6787 75.5186 47.8545 75.5098 48.0654 75.5098C48.4814 75.5098 48.7744 75.5391 48.9443 75.5977C49.1143 75.6562 49.1992 75.7412 49.1992 75.8525V79.333C49.1992 79.5732 49.1904 79.8223 49.1729 80.0801C49.1553 80.3379 49.1318 80.5869 49.1025 80.8271C49.2432 80.5928 49.3867 80.3613 49.5332 80.1328C49.6797 79.8984 49.835 79.6729 49.999 79.4561L52.6709 75.8525C52.7178 75.7881 52.7676 75.7354 52.8203 75.6943C52.873 75.6475 52.9375 75.6123 53.0137 75.5889C53.0957 75.5596 53.1924 75.5391 53.3037 75.5273C53.4209 75.5156 53.5703 75.5098 53.752 75.5098C53.957 75.5098 54.127 75.5156 54.2617 75.5273C54.3965 75.5391 54.502 75.5596 54.5781 75.5889C54.6602 75.6182 54.7158 75.6562 54.7451 75.7031C54.7744 75.75 54.7891 75.8027 54.7891 75.8613V83.7275ZM64.9316 79.7021C64.9316 80.3701 64.8438 80.9795 64.668 81.5303C64.4922 82.0811 64.2256 82.5557 63.8682 82.9541C63.5107 83.3525 63.0625 83.6602 62.5234 83.877C61.9844 84.0938 61.3545 84.2021 60.6338 84.2021C59.9365 84.2021 59.3301 84.1055 58.8145 83.9121C58.2988 83.7188 57.8711 83.4375 57.5312 83.0684C57.1914 82.6992 56.9395 82.2451 56.7754 81.7061C56.6113 81.167 56.5293 80.5518 56.5293 79.8604C56.5293 79.1924 56.6172 78.583 56.793 78.0322C56.9746 77.4756 57.2441 77.001 57.6016 76.6084C57.959 76.21 58.4043 75.9023 58.9375 75.6855C59.4766 75.4688 60.1064 75.3604 60.8271 75.3604C61.5303 75.3604 62.1396 75.457 62.6553 75.6504C63.1709 75.8379 63.5957 76.1162 63.9297 76.4854C64.2695 76.8545 64.5215 77.3086 64.6855 77.8477C64.8496 78.3867 64.9316 79.0049 64.9316 79.7021ZM62.6553 79.79C62.6553 79.4033 62.623 79.0488 62.5586 78.7266C62.5 78.3984 62.3975 78.1143 62.251 77.874C62.1045 77.6338 61.9082 77.4463 61.6621 77.3115C61.4219 77.1768 61.1172 77.1094 60.748 77.1094C60.4199 77.1094 60.1328 77.1709 59.8867 77.2939C59.6406 77.4111 59.4385 77.5869 59.2803 77.8213C59.1221 78.0498 59.002 78.3281 58.9199 78.6562C58.8438 78.9785 58.8057 79.3477 58.8057 79.7637C58.8057 80.1504 58.8379 80.5078 58.9023 80.8359C58.9668 81.1582 59.0693 81.4395 59.21 81.6797C59.3564 81.9199 59.5527 82.1074 59.7988 82.2422C60.0449 82.3711 60.3496 82.4355 60.7129 82.4355C61.0469 82.4355 61.3369 82.377 61.583 82.2598C61.8291 82.1367 62.0312 81.9609 62.1895 81.7324C62.3477 81.5039 62.4648 81.2285 62.541 80.9062C62.6172 80.5781 62.6553 80.2061 62.6553 79.79ZM74.2832 83.7012C74.2832 83.7598 74.2656 83.8125 74.2305 83.8594C74.1953 83.9004 74.1367 83.9355 74.0547 83.9648C73.9727 83.9941 73.8584 84.0146 73.7119 84.0264C73.5713 84.0439 73.3955 84.0527 73.1846 84.0527C72.9678 84.0527 72.7861 84.0439 72.6396 84.0264C72.499 84.0146 72.3877 83.9941 72.3057 83.9648C72.2236 83.9355 72.165 83.9004 72.1299 83.8594C72.0947 83.8125 72.0771 83.7598 72.0771 83.7012V80.6162H68.9043V83.7012C68.9043 83.7598 68.8867 83.8125 68.8516 83.8594C68.8164 83.9004 68.7549 83.9355 68.667 83.9648C68.585 83.9941 68.4736 84.0146 68.333 84.0264C68.1924 84.0439 68.0137 84.0527 67.7969 84.0527C67.5801 84.0527 67.4014 84.0439 67.2607 84.0264C67.1201 84.0146 67.0059 83.9941 66.918 83.9648C66.8359 83.9355 66.7773 83.9004 66.7422 83.8594C66.707 83.8125 66.6895 83.7598 66.6895 83.7012V75.8613C66.6895 75.8027 66.707 75.7529 66.7422 75.7119C66.7773 75.665 66.8359 75.627 66.918 75.5977C67.0059 75.5684 67.1201 75.5479 67.2607 75.5361C67.4014 75.5186 67.5801 75.5098 67.7969 75.5098C68.0137 75.5098 68.1924 75.5186 68.333 75.5361C68.4736 75.5479 68.585 75.5684 68.667 75.5977C68.7549 75.627 68.8164 75.665 68.8516 75.7119C68.8867 75.7529 68.9043 75.8027 68.9043 75.8613V78.7969H72.0771V75.8613C72.0771 75.8027 72.0947 75.7529 72.1299 75.7119C72.165 75.665 72.2236 75.627 72.3057 75.5977C72.3877 75.5684 72.499 75.5479 72.6396 75.5361C72.7861 75.5186 72.9678 75.5098 73.1846 75.5098C73.3955 75.5098 73.5713 75.5186 73.7119 75.5361C73.8584 75.5479 73.9727 75.5684 74.0547 75.5977C74.1367 75.627 74.1953 75.665 74.2305 75.7119C74.2656 75.7529 74.2832 75.8027 74.2832 75.8613V83.7012ZM83.1953 83.7275C83.1953 83.8096 83.166 83.874 83.1074 83.9209C83.0488 83.9678 82.9551 84 82.8262 84.0176C82.7031 84.041 82.5186 84.0527 82.2725 84.0527C82.0088 84.0527 81.8154 84.041 81.6924 84.0176C81.5752 84 81.4902 83.9678 81.4375 83.9209C81.3906 83.874 81.3672 83.8096 81.3672 83.7275V83.1035C81.0449 83.4492 80.6758 83.7188 80.2598 83.9121C79.8496 84.1055 79.3926 84.2021 78.8887 84.2021C78.4727 84.2021 78.0889 84.1465 77.7373 84.0352C77.3916 83.9297 77.0898 83.7715 76.832 83.5605C76.5801 83.3438 76.3838 83.0771 76.2432 82.7607C76.1025 82.4443 76.0322 82.0752 76.0322 81.6533C76.0322 81.1963 76.1201 80.8008 76.2959 80.4668C76.4775 80.127 76.7441 79.8486 77.0957 79.6318C77.4531 79.4092 77.8955 79.2451 78.4229 79.1396C78.9502 79.0342 79.5625 78.9814 80.2598 78.9814H81.0244V78.5068C81.0244 78.2607 80.998 78.0469 80.9453 77.8652C80.8984 77.6777 80.8164 77.5225 80.6992 77.3994C80.5879 77.2764 80.4355 77.1855 80.2422 77.127C80.0547 77.0684 79.8203 77.0391 79.5391 77.0391C79.1699 77.0391 78.8389 77.0801 78.5459 77.1621C78.2588 77.2441 78.0039 77.335 77.7812 77.4346C77.5586 77.5342 77.3711 77.625 77.2188 77.707C77.0723 77.7891 76.9521 77.8301 76.8584 77.8301C76.7939 77.8301 76.7354 77.8096 76.6826 77.7686C76.6357 77.7275 76.5947 77.6689 76.5596 77.5928C76.5303 77.5166 76.5068 77.4229 76.4893 77.3115C76.4717 77.2002 76.4629 77.0771 76.4629 76.9424C76.4629 76.7607 76.4775 76.6172 76.5068 76.5117C76.5361 76.4062 76.5918 76.3125 76.6738 76.2305C76.7559 76.1426 76.8994 76.0488 77.1045 75.9492C77.3096 75.8438 77.5498 75.7471 77.8252 75.6592C78.1006 75.5713 78.3994 75.501 78.7217 75.4482C79.0498 75.3896 79.3867 75.3604 79.7324 75.3604C80.3477 75.3604 80.8721 75.4219 81.3057 75.5449C81.7451 75.6621 82.1055 75.8467 82.3867 76.0986C82.668 76.3447 82.873 76.6641 83.002 77.0566C83.1309 77.4492 83.1953 77.915 83.1953 78.4541V83.7275ZM81.0244 80.3701H80.1807C79.8232 80.3701 79.5186 80.3965 79.2666 80.4492C79.0146 80.502 78.8096 80.5811 78.6514 80.6865C78.4932 80.792 78.376 80.9209 78.2998 81.0732C78.2295 81.2197 78.1943 81.3896 78.1943 81.583C78.1943 81.9111 78.2969 82.1689 78.502 82.3564C78.7129 82.5439 79.0029 82.6377 79.3721 82.6377C79.6826 82.6377 79.9668 82.5586 80.2246 82.4004C80.4883 82.2422 80.7549 82.0107 81.0244 81.7061V80.3701ZM91.1582 76.5381C91.1582 76.7314 91.1494 76.8926 91.1318 77.0215C91.1201 77.1504 91.0996 77.2529 91.0703 77.3291C91.041 77.4053 91.0029 77.458 90.9561 77.4873C90.915 77.5166 90.8682 77.5312 90.8154 77.5312H88.8379V83.7012C88.8379 83.7598 88.8203 83.8125 88.7852 83.8594C88.75 83.9004 88.6914 83.9355 88.6094 83.9648C88.5273 83.9941 88.4131 84.0146 88.2666 84.0264C88.126 84.0439 87.9473 84.0527 87.7305 84.0527C87.5195 84.0527 87.3438 84.0439 87.2031 84.0264C87.0625 84.0146 86.9482 83.9941 86.8604 83.9648C86.7783 83.9355 86.7197 83.9004 86.6846 83.8594C86.6553 83.8125 86.6406 83.7598 86.6406 83.7012V77.5312H84.6631C84.6045 77.5312 84.5518 77.5166 84.5049 77.4873C84.4639 77.4521 84.4287 77.3965 84.3994 77.3203C84.3701 77.2441 84.3467 77.1387 84.3291 77.0039C84.3174 76.8691 84.3115 76.7051 84.3115 76.5117C84.3115 76.3359 84.3203 76.1895 84.3379 76.0723C84.3555 75.9492 84.3789 75.8496 84.4082 75.7734C84.4375 75.6973 84.4727 75.6445 84.5137 75.6152C84.5547 75.5801 84.6045 75.5625 84.6631 75.5625H90.8154C90.8682 75.5625 90.915 75.5801 90.9561 75.6152C91.0029 75.6445 91.041 75.6973 91.0703 75.7734C91.0996 75.8496 91.1201 75.9521 91.1318 76.0811C91.1494 76.2041 91.1582 76.3564 91.1582 76.5381ZM97.46 86.5664C97.46 86.6191 97.4453 86.6631 97.416 86.6982C97.3867 86.7393 97.334 86.7715 97.2578 86.7949C97.1816 86.8242 97.082 86.8447 96.959 86.8564C96.8418 86.874 96.6924 86.8828 96.5107 86.8828C96.3232 86.8828 96.168 86.874 96.0449 86.8564C95.9219 86.8447 95.8223 86.8242 95.7461 86.7949C95.6699 86.7715 95.6172 86.7393 95.5879 86.6982C95.5586 86.6631 95.5439 86.6191 95.5439 86.5664V82.6377C95.5439 82.4619 95.5732 82.3447 95.6318 82.2861C95.6904 82.2217 95.8047 82.1895 95.9746 82.1895H96.4053C96.5928 81.9434 96.7686 81.665 96.9326 81.3545C97.0967 81.0439 97.249 80.6602 97.3896 80.2031C97.5361 79.7402 97.668 79.1895 97.7852 78.5508C97.9082 77.9062 98.0225 77.1357 98.1279 76.2393C98.1396 76.1338 98.1572 76.04 98.1807 75.958C98.21 75.8701 98.248 75.7969 98.2949 75.7383C98.3418 75.6797 98.4004 75.6357 98.4707 75.6064C98.5469 75.5771 98.6377 75.5625 98.7432 75.5625H103.586C103.797 75.5625 103.952 75.624 104.052 75.7471C104.151 75.8643 104.201 76.04 104.201 76.2744V82.1895H105.098C105.256 82.1895 105.367 82.2217 105.432 82.2861C105.502 82.3447 105.537 82.4619 105.537 82.6377V86.5664C105.537 86.6191 105.522 86.6631 105.493 86.6982C105.464 86.7393 105.411 86.7715 105.335 86.7949C105.259 86.8242 105.159 86.8447 105.036 86.8564C104.913 86.874 104.758 86.8828 104.57 86.8828C104.389 86.8828 104.236 86.874 104.113 86.8564C103.99 86.8447 103.891 86.8242 103.814 86.7949C103.744 86.7715 103.691 86.7393 103.656 86.6982C103.627 86.6631 103.612 86.6191 103.612 86.5664V84H97.46V86.5664ZM101.978 77.3291H100.105C100.006 78.0674 99.8975 78.7031 99.7803 79.2363C99.6631 79.7637 99.54 80.2178 99.4111 80.5986C99.2822 80.9795 99.1445 81.293 98.998 81.5391C98.8574 81.7852 98.7168 82.002 98.5762 82.1895H101.978V77.3291ZM114.159 83.7012C114.159 83.7598 114.142 83.8125 114.106 83.8594C114.071 83.9004 114.013 83.9355 113.931 83.9648C113.849 83.9941 113.734 84.0146 113.588 84.0264C113.447 84.0439 113.271 84.0527 113.061 84.0527C112.844 84.0527 112.662 84.0439 112.516 84.0264C112.375 84.0146 112.261 83.9941 112.173 83.9648C112.091 83.9355 112.032 83.9004 111.997 83.8594C111.968 83.8125 111.953 83.7598 111.953 83.7012V77.3643H110.362C110.269 78.2842 110.151 79.0928 110.011 79.79C109.876 80.4814 109.718 81.0791 109.536 81.583C109.354 82.0869 109.152 82.5059 108.93 82.8398C108.713 83.168 108.473 83.4287 108.209 83.6221C107.945 83.8154 107.658 83.9531 107.348 84.0352C107.043 84.1172 106.721 84.1582 106.381 84.1582C106.299 84.1582 106.231 84.1465 106.179 84.123C106.126 84.0996 106.085 84.0557 106.056 83.9912C106.026 83.9209 106.006 83.8213 105.994 83.6924C105.982 83.5635 105.977 83.3936 105.977 83.1826C105.977 82.9658 105.979 82.79 105.985 82.6553C105.997 82.5205 106.015 82.418 106.038 82.3477C106.062 82.2715 106.094 82.2217 106.135 82.1982C106.176 82.1748 106.226 82.1631 106.284 82.1631C106.448 82.1631 106.604 82.1309 106.75 82.0664C106.902 81.9961 107.043 81.876 107.172 81.7061C107.307 81.5303 107.433 81.3018 107.55 81.0205C107.667 80.7334 107.775 80.373 107.875 79.9395C107.975 79.5059 108.068 78.9902 108.156 78.3926C108.244 77.7891 108.329 77.0889 108.411 76.292C108.423 76.0518 108.473 75.873 108.561 75.7559C108.654 75.6387 108.804 75.5801 109.009 75.5801H113.553C113.758 75.5801 113.91 75.6387 114.01 75.7559C114.109 75.873 114.159 76.0518 114.159 76.292V83.7012ZM123.124 83.7012C123.124 83.7656 123.109 83.8213 123.08 83.8682C123.057 83.9092 123.004 83.9443 122.922 83.9736C122.846 84.0029 122.734 84.0234 122.588 84.0352C122.447 84.0469 122.26 84.0527 122.025 84.0527C121.814 84.0527 121.639 84.0469 121.498 84.0352C121.357 84.0234 121.243 84.0029 121.155 83.9736C121.073 83.9443 121.015 83.9092 120.979 83.8682C120.95 83.8213 120.936 83.7656 120.936 83.7012V80.7393H120.355C120.086 80.7393 119.872 80.7656 119.714 80.8184C119.556 80.8652 119.409 80.9502 119.274 81.0732C119.146 81.1904 119.025 81.3486 118.914 81.5479C118.803 81.7412 118.691 81.9873 118.58 82.2861L118.062 83.6309C118.026 83.7188 117.982 83.792 117.93 83.8506C117.883 83.9033 117.81 83.9443 117.71 83.9736C117.616 84.0029 117.493 84.0234 117.341 84.0352C117.188 84.0469 116.995 84.0527 116.761 84.0527C116.556 84.0527 116.383 84.0498 116.242 84.0439C116.102 84.0381 115.987 84.0264 115.899 84.0088C115.812 83.9912 115.747 83.9648 115.706 83.9297C115.671 83.8945 115.653 83.8447 115.653 83.7803C115.653 83.7158 115.674 83.625 115.715 83.5078C115.762 83.3848 115.847 83.1885 115.97 82.9189L116.506 81.6797C116.664 81.3164 116.857 81.0117 117.086 80.7656C117.314 80.5137 117.575 80.3291 117.868 80.2119C117.317 80.083 116.881 79.8457 116.559 79.5C116.242 79.1484 116.084 78.6914 116.084 78.1289C116.084 77.7129 116.166 77.3408 116.33 77.0127C116.5 76.6787 116.749 76.3975 117.077 76.1689C117.411 75.9404 117.824 75.7646 118.316 75.6416C118.809 75.5186 119.38 75.457 120.03 75.457C120.212 75.457 120.411 75.46 120.628 75.4658C120.851 75.4717 121.073 75.4805 121.296 75.4922C121.524 75.5039 121.747 75.5186 121.964 75.5361C122.187 75.5479 122.383 75.5625 122.553 75.5801C122.746 75.5918 122.89 75.6592 122.983 75.7822C123.077 75.8994 123.124 76.0547 123.124 76.248V83.7012ZM120.936 77.0479C120.771 77.0186 120.602 76.998 120.426 76.9863C120.25 76.9746 120.086 76.9688 119.934 76.9688C119.623 76.9688 119.362 76.998 119.151 77.0566C118.946 77.1152 118.779 77.1973 118.65 77.3027C118.521 77.4082 118.428 77.5342 118.369 77.6807C118.316 77.8271 118.29 77.9854 118.29 78.1553C118.29 78.3369 118.319 78.501 118.378 78.6475C118.442 78.7881 118.539 78.9082 118.668 79.0078C118.803 79.1016 118.97 79.1748 119.169 79.2275C119.374 79.2744 119.646 79.2979 119.986 79.2979H120.936V77.0479ZM137.354 79.7021C137.354 80.3701 137.266 80.9795 137.09 81.5303C136.914 82.0811 136.647 82.5557 136.29 82.9541C135.933 83.3525 135.484 83.6602 134.945 83.877C134.406 84.0938 133.776 84.2021 133.056 84.2021C132.358 84.2021 131.752 84.1055 131.236 83.9121C130.721 83.7188 130.293 83.4375 129.953 83.0684C129.613 82.6992 129.361 82.2451 129.197 81.7061C129.033 81.167 128.951 80.5518 128.951 79.8604C128.951 79.1924 129.039 78.583 129.215 78.0322C129.396 77.4756 129.666 77.001 130.023 76.6084C130.381 76.21 130.826 75.9023 131.359 75.6855C131.898 75.4688 132.528 75.3604 133.249 75.3604C133.952 75.3604 134.562 75.457 135.077 75.6504C135.593 75.8379 136.018 76.1162 136.352 76.4854C136.691 76.8545 136.943 77.3086 137.107 77.8477C137.271 78.3867 137.354 79.0049 137.354 79.7021ZM135.077 79.79C135.077 79.4033 135.045 79.0488 134.98 78.7266C134.922 78.3984 134.819 78.1143 134.673 77.874C134.526 77.6338 134.33 77.4463 134.084 77.3115C133.844 77.1768 133.539 77.1094 133.17 77.1094C132.842 77.1094 132.555 77.1709 132.309 77.2939C132.062 77.4111 131.86 77.5869 131.702 77.8213C131.544 78.0498 131.424 78.3281 131.342 78.6562C131.266 78.9785 131.228 79.3477 131.228 79.7637C131.228 80.1504 131.26 80.5078 131.324 80.8359C131.389 81.1582 131.491 81.4395 131.632 81.6797C131.778 81.9199 131.975 82.1074 132.221 82.2422C132.467 82.3711 132.771 82.4355 133.135 82.4355C133.469 82.4355 133.759 82.377 134.005 82.2598C134.251 82.1367 134.453 81.9609 134.611 81.7324C134.77 81.5039 134.887 81.2285 134.963 80.9062C135.039 80.5781 135.077 80.2061 135.077 79.79ZM145.686 83.7012C145.686 83.7598 145.668 83.8125 145.633 83.8594C145.598 83.9004 145.539 83.9355 145.457 83.9648C145.375 83.9941 145.261 84.0146 145.114 84.0264C144.974 84.0439 144.798 84.0527 144.587 84.0527C144.37 84.0527 144.188 84.0439 144.042 84.0264C143.901 84.0146 143.787 83.9941 143.699 83.9648C143.617 83.9355 143.559 83.9004 143.523 83.8594C143.494 83.8125 143.479 83.7598 143.479 83.7012V81.0029C143.192 81.126 142.885 81.2197 142.557 81.2842C142.234 81.3428 141.877 81.3721 141.484 81.3721C140.893 81.3721 140.4 81.3018 140.008 81.1611C139.621 81.0205 139.308 80.8242 139.067 80.5723C138.833 80.3203 138.666 80.0244 138.566 79.6846C138.473 79.3447 138.426 78.9111 138.426 78.3838V75.8613C138.426 75.8027 138.44 75.7529 138.47 75.7119C138.505 75.665 138.563 75.627 138.646 75.5977C138.733 75.5684 138.848 75.5479 138.988 75.5361C139.129 75.5186 139.308 75.5098 139.524 75.5098C139.741 75.5098 139.92 75.5186 140.061 75.5361C140.201 75.5479 140.312 75.5684 140.395 75.5977C140.482 75.627 140.541 75.665 140.57 75.7119C140.605 75.7529 140.623 75.8027 140.623 75.8613V78.0498C140.623 78.4365 140.652 78.7207 140.711 78.9023C140.77 79.0781 140.852 79.2217 140.957 79.333C141.062 79.4385 141.191 79.5146 141.344 79.5615C141.496 79.6025 141.672 79.623 141.871 79.623C142.152 79.623 142.425 79.5908 142.688 79.5264C142.958 79.4561 143.222 79.3564 143.479 79.2275V75.8613C143.479 75.8027 143.494 75.7529 143.523 75.7119C143.559 75.665 143.617 75.627 143.699 75.5977C143.787 75.5684 143.901 75.5479 144.042 75.5361C144.188 75.5186 144.37 75.5098 144.587 75.5098C144.798 75.5098 144.974 75.5186 145.114 75.5361C145.261 75.5479 145.375 75.5684 145.457 75.5977C145.539 75.627 145.598 75.665 145.633 75.7119C145.668 75.7529 145.686 75.8027 145.686 75.8613V83.7012ZM155.143 79.5527C155.143 79.8223 155.081 80.0215 154.958 80.1504C154.841 80.2793 154.677 80.3438 154.466 80.3438H149.693C149.693 80.6777 149.731 80.9824 149.808 81.2578C149.89 81.5273 150.016 81.7588 150.186 81.9521C150.361 82.1396 150.584 82.2832 150.854 82.3828C151.129 82.4824 151.457 82.5322 151.838 82.5322C152.225 82.5322 152.564 82.5059 152.857 82.4531C153.15 82.3945 153.402 82.333 153.613 82.2686C153.83 82.1982 154.009 82.1367 154.149 82.084C154.29 82.0254 154.404 81.9961 154.492 81.9961C154.545 81.9961 154.589 82.0078 154.624 82.0312C154.659 82.0488 154.688 82.084 154.712 82.1367C154.735 82.1895 154.75 82.2656 154.756 82.3652C154.768 82.459 154.773 82.5791 154.773 82.7256C154.773 82.8545 154.771 82.9658 154.765 83.0596C154.759 83.1475 154.75 83.2236 154.738 83.2881C154.727 83.3525 154.709 83.4082 154.686 83.4551C154.662 83.4961 154.63 83.5371 154.589 83.5781C154.554 83.6191 154.451 83.6748 154.281 83.7451C154.111 83.8154 153.895 83.8857 153.631 83.9561C153.367 84.0205 153.065 84.0762 152.726 84.123C152.386 84.1758 152.022 84.2021 151.636 84.2021C150.938 84.2021 150.326 84.1143 149.799 83.9385C149.277 83.7627 148.841 83.4961 148.489 83.1387C148.138 82.7812 147.874 82.3301 147.698 81.7852C147.528 81.2402 147.443 80.6016 147.443 79.8691C147.443 79.1719 147.534 78.5449 147.716 77.9883C147.897 77.4258 148.161 76.9512 148.507 76.5645C148.853 76.1719 149.271 75.873 149.764 75.668C150.262 75.4629 150.821 75.3604 151.442 75.3604C152.099 75.3604 152.658 75.457 153.121 75.6504C153.59 75.8438 153.974 76.1133 154.272 76.459C154.571 76.7988 154.791 77.2031 154.932 77.6719C155.072 78.1406 155.143 78.6504 155.143 79.2012V79.5527ZM152.998 78.9199C153.016 78.2988 152.89 77.8125 152.62 77.4609C152.356 77.1035 151.946 76.9248 151.39 76.9248C151.108 76.9248 150.862 76.9775 150.651 77.083C150.446 77.1885 150.273 77.332 150.133 77.5137C149.998 77.6895 149.893 77.9004 149.816 78.1465C149.746 78.3867 149.705 78.6445 149.693 78.9199H152.998ZM164.564 83.7012C164.564 83.7598 164.547 83.8125 164.512 83.8594C164.477 83.9004 164.418 83.9355 164.336 83.9648C164.254 83.9941 164.14 84.0146 163.993 84.0264C163.853 84.0439 163.677 84.0527 163.466 84.0527C163.249 84.0527 163.067 84.0439 162.921 84.0264C162.78 84.0146 162.669 83.9941 162.587 83.9648C162.505 83.9355 162.446 83.9004 162.411 83.8594C162.376 83.8125 162.358 83.7598 162.358 83.7012V80.6162H159.186V83.7012C159.186 83.7598 159.168 83.8125 159.133 83.8594C159.098 83.9004 159.036 83.9355 158.948 83.9648C158.866 83.9941 158.755 84.0146 158.614 84.0264C158.474 84.0439 158.295 84.0527 158.078 84.0527C157.861 84.0527 157.683 84.0439 157.542 84.0264C157.401 84.0146 157.287 83.9941 157.199 83.9648C157.117 83.9355 157.059 83.9004 157.023 83.8594C156.988 83.8125 156.971 83.7598 156.971 83.7012V75.8613C156.971 75.8027 156.988 75.7529 157.023 75.7119C157.059 75.665 157.117 75.627 157.199 75.5977C157.287 75.5684 157.401 75.5479 157.542 75.5361C157.683 75.5186 157.861 75.5098 158.078 75.5098C158.295 75.5098 158.474 75.5186 158.614 75.5361C158.755 75.5479 158.866 75.5684 158.948 75.5977C159.036 75.627 159.098 75.665 159.133 75.7119C159.168 75.7529 159.186 75.8027 159.186 75.8613V78.7969H162.358V75.8613C162.358 75.8027 162.376 75.7529 162.411 75.7119C162.446 75.665 162.505 75.627 162.587 75.5977C162.669 75.5684 162.78 75.5479 162.921 75.5361C163.067 75.5186 163.249 75.5098 163.466 75.5098C163.677 75.5098 163.853 75.5186 163.993 75.5361C164.14 75.5479 164.254 75.5684 164.336 75.5977C164.418 75.627 164.477 75.665 164.512 75.7119C164.547 75.7529 164.564 75.8027 164.564 75.8613V83.7012ZM174.241 81.0645C174.241 81.5273 174.153 81.9521 173.978 82.3389C173.808 82.7197 173.544 83.0479 173.187 83.3232C172.829 83.5928 172.378 83.8037 171.833 83.9561C171.294 84.1025 170.655 84.1758 169.917 84.1758C169.724 84.1758 169.524 84.1729 169.319 84.167C169.114 84.167 168.912 84.1611 168.713 84.1494C168.514 84.1436 168.317 84.1348 168.124 84.123C167.937 84.1113 167.761 84.0967 167.597 84.0791C167.315 84.0498 167.11 83.9648 166.981 83.8242C166.858 83.6836 166.797 83.4697 166.797 83.1826V75.8613C166.797 75.8027 166.814 75.7529 166.85 75.7119C166.885 75.665 166.943 75.627 167.025 75.5977C167.113 75.5684 167.228 75.5479 167.368 75.5361C167.509 75.5186 167.685 75.5098 167.896 75.5098C168.112 75.5098 168.291 75.5186 168.432 75.5361C168.572 75.5479 168.684 75.5684 168.766 75.5977C168.854 75.627 168.915 75.665 168.95 75.7119C168.991 75.7529 169.012 75.8027 169.012 75.8613V78.2783C169.211 78.2607 169.428 78.2461 169.662 78.2344C169.896 78.2227 170.137 78.2168 170.383 78.2168C171.045 78.2168 171.619 78.2842 172.105 78.4189C172.592 78.5479 172.99 78.7354 173.301 78.9814C173.617 79.2275 173.852 79.5264 174.004 79.8779C174.162 80.2236 174.241 80.6191 174.241 81.0645ZM171.912 81.1875C171.912 80.9824 171.88 80.8008 171.815 80.6426C171.751 80.4785 171.646 80.3408 171.499 80.2295C171.358 80.1123 171.174 80.0244 170.945 79.9658C170.723 79.9072 170.447 79.8779 170.119 79.8779C169.914 79.8779 169.715 79.8838 169.521 79.8955C169.328 79.9014 169.158 79.9102 169.012 79.9219V82.4531C169.182 82.4707 169.36 82.4854 169.548 82.4971C169.741 82.5088 169.946 82.5146 170.163 82.5146C170.761 82.5146 171.2 82.3975 171.481 82.1631C171.769 81.9287 171.912 81.6035 171.912 81.1875ZM186.994 81.3984C186.994 81.8496 186.909 82.2451 186.739 82.585C186.575 82.9248 186.323 83.209 185.983 83.4375C185.644 83.6602 185.219 83.8301 184.709 83.9473C184.199 84.0645 183.599 84.123 182.907 84.123C182.679 84.123 182.465 84.1201 182.266 84.1143C182.072 84.1143 181.882 84.1113 181.694 84.1055C181.513 84.0996 181.328 84.0908 181.141 84.0791C180.959 84.0674 180.763 84.0498 180.552 84.0264C180.276 84.0029 180.08 83.9209 179.963 83.7803C179.846 83.6396 179.787 83.4287 179.787 83.1475V76.3887C179.787 76.1191 179.843 75.917 179.954 75.7822C180.065 75.6416 180.235 75.5566 180.464 75.5273C180.61 75.5156 180.777 75.5039 180.965 75.4922C181.158 75.4805 181.366 75.4717 181.589 75.4658C181.812 75.4541 182.043 75.4453 182.283 75.4395C182.523 75.4336 182.767 75.4307 183.013 75.4307C183.64 75.4307 184.179 75.4746 184.63 75.5625C185.087 75.6504 185.462 75.7852 185.755 75.9668C186.054 76.1426 186.273 76.3623 186.414 76.626C186.561 76.8838 186.634 77.1885 186.634 77.54C186.634 78.0146 186.505 78.4102 186.247 78.7266C185.995 79.043 185.632 79.2568 185.157 79.3682C185.749 79.4736 186.203 79.7021 186.52 80.0537C186.836 80.3994 186.994 80.8477 186.994 81.3984ZM184.568 77.9355C184.568 77.7773 184.539 77.6367 184.48 77.5137C184.428 77.3906 184.34 77.2881 184.217 77.2061C184.094 77.1182 183.93 77.0537 183.725 77.0127C183.525 76.9658 183.282 76.9424 182.995 76.9424C182.772 76.9424 182.562 76.9482 182.362 76.96C182.169 76.9717 181.999 76.9863 181.853 77.0039V78.9814H183.039C183.537 78.9814 183.915 78.8936 184.173 78.7178C184.437 78.5361 184.568 78.2754 184.568 77.9355ZM184.797 81.3896C184.797 81.2021 184.765 81.0381 184.7 80.8975C184.642 80.7568 184.539 80.6396 184.393 80.5459C184.252 80.4521 184.064 80.3848 183.83 80.3438C183.602 80.2969 183.326 80.2734 183.004 80.2734H181.853V82.5234C181.946 82.5352 182.043 82.5469 182.143 82.5586C182.248 82.5645 182.354 82.5703 182.459 82.5762C182.564 82.582 182.667 82.5879 182.767 82.5938C182.872 82.5938 182.966 82.5938 183.048 82.5938C183.358 82.5938 183.625 82.5674 183.848 82.5146C184.07 82.4561 184.252 82.374 184.393 82.2686C184.533 82.1631 184.636 82.0371 184.7 81.8906C184.765 81.7383 184.797 81.5713 184.797 81.3896ZM194.693 81.5303C194.693 81.9639 194.603 82.3477 194.421 82.6816C194.239 83.0098 193.984 83.2881 193.656 83.5166C193.328 83.7451 192.93 83.915 192.461 84.0264C191.998 84.1436 191.477 84.2021 190.896 84.2021C190.598 84.2021 190.311 84.1787 190.035 84.1318C189.76 84.0908 189.505 84.0381 189.271 83.9736C189.042 83.9033 188.852 83.833 188.699 83.7627C188.547 83.6865 188.436 83.6221 188.365 83.5693C188.301 83.5107 188.251 83.4551 188.216 83.4023C188.187 83.3438 188.163 83.2793 188.146 83.209C188.128 83.1387 188.116 83.0537 188.11 82.9541C188.104 82.8486 188.102 82.7227 188.102 82.5762C188.102 82.4414 188.107 82.333 188.119 82.251C188.131 82.1689 188.146 82.1016 188.163 82.0488C188.187 81.9961 188.213 81.9609 188.242 81.9434C188.271 81.9199 188.307 81.9082 188.348 81.9082C188.424 81.9082 188.521 81.9463 188.638 82.0225C188.761 82.0928 188.913 82.1719 189.095 82.2598C189.282 82.3418 189.508 82.4209 189.771 82.4971C190.041 82.5732 190.363 82.6113 190.738 82.6113C190.996 82.6113 191.222 82.585 191.415 82.5322C191.614 82.4795 191.778 82.4062 191.907 82.3125C192.042 82.2129 192.142 82.0928 192.206 81.9521C192.276 81.8115 192.312 81.6533 192.312 81.4775C192.312 81.3135 192.279 81.167 192.215 81.0381C192.15 80.9092 192.042 80.8008 191.89 80.7129C191.743 80.6191 191.547 80.5488 191.301 80.502C191.061 80.4551 190.765 80.4316 190.413 80.4316H189.569C189.493 80.4316 189.432 80.4199 189.385 80.3965C189.338 80.3672 189.3 80.3232 189.271 80.2646C189.241 80.2061 189.221 80.127 189.209 80.0273C189.203 79.9277 189.2 79.8076 189.2 79.667C189.2 79.5322 189.206 79.4209 189.218 79.333C189.229 79.2393 189.247 79.166 189.271 79.1133C189.3 79.0605 189.335 79.0225 189.376 78.999C189.423 78.9756 189.479 78.9639 189.543 78.9639H190.36C190.677 78.9639 190.949 78.9404 191.178 78.8936C191.406 78.8467 191.594 78.7793 191.74 78.6914C191.887 78.5977 191.992 78.4863 192.057 78.3574C192.127 78.2227 192.162 78.0674 192.162 77.8916C192.162 77.7393 192.13 77.6045 192.065 77.4873C192.001 77.3643 191.91 77.2646 191.793 77.1885C191.676 77.1064 191.532 77.0479 191.362 77.0127C191.198 76.9717 191.017 76.9512 190.817 76.9512C190.483 76.9512 190.185 76.9893 189.921 77.0654C189.663 77.1357 189.438 77.2148 189.244 77.3027C189.051 77.3906 188.89 77.4697 188.761 77.54C188.638 77.6104 188.544 77.6455 188.479 77.6455C188.444 77.6455 188.412 77.6396 188.383 77.6279C188.354 77.6104 188.324 77.5781 188.295 77.5312C188.271 77.4785 188.251 77.4082 188.233 77.3203C188.222 77.2324 188.216 77.1152 188.216 76.9688C188.216 76.7402 188.23 76.5586 188.26 76.4238C188.295 76.2832 188.348 76.1777 188.418 76.1074C188.494 76.0312 188.623 75.9492 188.805 75.8613C188.992 75.7676 189.209 75.6855 189.455 75.6152C189.707 75.5391 189.979 75.4775 190.272 75.4307C190.571 75.3838 190.876 75.3604 191.187 75.3604C191.667 75.3604 192.106 75.4072 192.505 75.501C192.903 75.5947 193.24 75.7383 193.516 75.9316C193.797 76.1191 194.011 76.3535 194.157 76.6348C194.31 76.916 194.386 77.2412 194.386 77.6104C194.386 77.833 194.351 78.0469 194.28 78.252C194.21 78.457 194.11 78.6445 193.981 78.8145C193.853 78.9785 193.694 79.125 193.507 79.2539C193.325 79.3828 193.114 79.4824 192.874 79.5527L192.865 79.5703C193.117 79.5996 193.352 79.6699 193.568 79.7812C193.791 79.8926 193.984 80.0332 194.148 80.2031C194.318 80.373 194.45 80.5723 194.544 80.8008C194.644 81.0234 194.693 81.2666 194.693 81.5303ZM204.273 79.667C204.273 80.3643 204.197 80.9941 204.045 81.5566C203.898 82.1133 203.682 82.5879 203.395 82.9805C203.107 83.373 202.75 83.6748 202.322 83.8857C201.895 84.0967 201.405 84.2021 200.854 84.2021C200.626 84.2021 200.415 84.1787 200.222 84.1318C200.034 84.0908 199.85 84.0264 199.668 83.9385C199.492 83.8447 199.316 83.7305 199.141 83.5957C198.965 83.4609 198.783 83.3027 198.596 83.1211V86.8125C198.596 86.8711 198.578 86.9238 198.543 86.9707C198.508 87.0176 198.446 87.0557 198.358 87.085C198.276 87.1201 198.165 87.1465 198.024 87.1641C197.884 87.1816 197.705 87.1904 197.488 87.1904C197.271 87.1904 197.093 87.1816 196.952 87.1641C196.812 87.1465 196.697 87.1201 196.609 87.085C196.527 87.0557 196.469 87.0176 196.434 86.9707C196.398 86.9238 196.381 86.8711 196.381 86.8125V75.8613C196.381 75.8027 196.396 75.7529 196.425 75.7119C196.454 75.665 196.504 75.627 196.574 75.5977C196.65 75.5684 196.747 75.5479 196.864 75.5361C196.987 75.5186 197.14 75.5098 197.321 75.5098C197.497 75.5098 197.644 75.5186 197.761 75.5361C197.884 75.5479 197.98 75.5684 198.051 75.5977C198.127 75.627 198.18 75.665 198.209 75.7119C198.238 75.7529 198.253 75.8027 198.253 75.8613V76.7842C198.481 76.5498 198.704 76.3447 198.921 76.1689C199.144 75.9873 199.369 75.8379 199.598 75.7207C199.826 75.5977 200.061 75.5068 200.301 75.4482C200.547 75.3896 200.808 75.3604 201.083 75.3604C201.657 75.3604 202.146 75.4746 202.551 75.7031C202.955 75.9258 203.283 76.2334 203.535 76.626C203.793 77.0186 203.98 77.4756 204.098 77.9971C204.215 78.5186 204.273 79.0752 204.273 79.667ZM201.971 79.8252C201.971 79.4912 201.944 79.1719 201.892 78.8672C201.845 78.5566 201.76 78.2812 201.637 78.041C201.52 77.8008 201.361 77.6104 201.162 77.4697C200.969 77.3232 200.726 77.25 200.433 77.25C200.286 77.25 200.14 77.2734 199.993 77.3203C199.853 77.3613 199.706 77.4316 199.554 77.5312C199.407 77.6309 199.255 77.7598 199.097 77.918C198.938 78.0762 198.771 78.2725 198.596 78.5068V81.0908C198.906 81.4834 199.202 81.7881 199.483 82.0049C199.765 82.2158 200.058 82.3213 200.362 82.3213C200.649 82.3213 200.893 82.248 201.092 82.1016C201.297 81.9551 201.464 81.7646 201.593 81.5303C201.722 81.29 201.815 81.0205 201.874 80.7217C201.938 80.4229 201.971 80.124 201.971 79.8252ZM213.977 79.7021C213.977 80.3701 213.889 80.9795 213.713 81.5303C213.537 82.0811 213.271 82.5557 212.913 82.9541C212.556 83.3525 212.107 83.6602 211.568 83.877C211.029 84.0938 210.399 84.2021 209.679 84.2021C208.981 84.2021 208.375 84.1055 207.859 83.9121C207.344 83.7188 206.916 83.4375 206.576 83.0684C206.236 82.6992 205.984 82.2451 205.82 81.7061C205.656 81.167 205.574 80.5518 205.574 79.8604C205.574 79.1924 205.662 78.583 205.838 78.0322C206.02 77.4756 206.289 77.001 206.646 76.6084C207.004 76.21 207.449 75.9023 207.982 75.6855C208.521 75.4688 209.151 75.3604 209.872 75.3604C210.575 75.3604 211.185 75.457 211.7 75.6504C212.216 75.8379 212.641 76.1162 212.975 76.4854C213.314 76.8545 213.566 77.3086 213.73 77.8477C213.895 78.3867 213.977 79.0049 213.977 79.7021ZM211.7 79.79C211.7 79.4033 211.668 79.0488 211.604 78.7266C211.545 78.3984 211.442 78.1143 211.296 77.874C211.149 77.6338 210.953 77.4463 210.707 77.3115C210.467 77.1768 210.162 77.1094 209.793 77.1094C209.465 77.1094 209.178 77.1709 208.932 77.2939C208.686 77.4111 208.483 77.5869 208.325 77.8213C208.167 78.0498 208.047 78.3281 207.965 78.6562C207.889 78.9785 207.851 79.3477 207.851 79.7637C207.851 80.1504 207.883 80.5078 207.947 80.8359C208.012 81.1582 208.114 81.4395 208.255 81.6797C208.401 81.9199 208.598 82.1074 208.844 82.2422C209.09 82.3711 209.395 82.4355 209.758 82.4355C210.092 82.4355 210.382 82.377 210.628 82.2598C210.874 82.1367 211.076 81.9609 211.234 81.7324C211.393 81.5039 211.51 81.2285 211.586 80.9062C211.662 80.5781 211.7 80.2061 211.7 79.79ZM221.667 82.4531C221.667 82.6055 221.661 82.7344 221.649 82.8398C221.644 82.9395 221.632 83.0244 221.614 83.0947C221.603 83.165 221.585 83.2236 221.562 83.2705C221.544 83.3115 221.5 83.3672 221.43 83.4375C221.359 83.502 221.239 83.584 221.069 83.6836C220.899 83.7773 220.706 83.8623 220.489 83.9385C220.272 84.0146 220.035 84.0762 219.777 84.123C219.525 84.1699 219.265 84.1934 218.995 84.1934C218.392 84.1934 217.855 84.0996 217.387 83.9121C216.924 83.7246 216.534 83.4492 216.218 83.0859C215.901 82.7168 215.661 82.2686 215.497 81.7412C215.339 81.2139 215.26 80.6104 215.26 79.9307C215.26 79.1455 215.356 78.4688 215.55 77.9004C215.749 77.3262 216.024 76.8516 216.376 76.4766C216.728 76.1016 217.144 75.8232 217.624 75.6416C218.104 75.46 218.632 75.3691 219.206 75.3691C219.44 75.3691 219.669 75.3896 219.892 75.4307C220.12 75.4717 220.331 75.5273 220.524 75.5977C220.724 75.668 220.899 75.7471 221.052 75.835C221.21 75.9229 221.321 75.999 221.386 76.0635C221.45 76.1279 221.494 76.1836 221.518 76.2305C221.547 76.2715 221.567 76.3271 221.579 76.3975C221.597 76.4678 221.608 76.5557 221.614 76.6611C221.626 76.7607 221.632 76.8838 221.632 77.0303C221.632 77.3701 221.603 77.6104 221.544 77.751C221.485 77.8857 221.409 77.9531 221.315 77.9531C221.216 77.9531 221.11 77.9121 220.999 77.8301C220.888 77.748 220.756 77.6572 220.604 77.5576C220.451 77.458 220.27 77.3672 220.059 77.2852C219.848 77.2031 219.596 77.1621 219.303 77.1621C218.729 77.1621 218.289 77.3848 217.984 77.8301C217.68 78.2695 217.527 78.917 217.527 79.7725C217.527 80.1943 217.565 80.5664 217.642 80.8887C217.718 81.2109 217.829 81.4805 217.976 81.6973C218.128 81.9141 218.315 82.0781 218.538 82.1895C218.767 82.2949 219.03 82.3477 219.329 82.3477C219.634 82.3477 219.895 82.3037 220.111 82.2158C220.334 82.1221 220.527 82.0195 220.691 81.9082C220.855 81.7969 220.993 81.6973 221.104 81.6094C221.216 81.5156 221.31 81.4688 221.386 81.4688C221.438 81.4688 221.482 81.4834 221.518 81.5127C221.553 81.542 221.579 81.5977 221.597 81.6797C221.62 81.7559 221.638 81.8555 221.649 81.9785C221.661 82.1016 221.667 82.2598 221.667 82.4531ZM230.526 83.7012C230.526 83.7598 230.509 83.8125 230.474 83.8594C230.438 83.9004 230.38 83.9355 230.298 83.9648C230.216 83.9941 230.102 84.0146 229.955 84.0264C229.814 84.0439 229.639 84.0527 229.428 84.0527C229.211 84.0527 229.029 84.0439 228.883 84.0264C228.742 84.0146 228.628 83.9941 228.54 83.9648C228.458 83.9355 228.399 83.9004 228.364 83.8594C228.335 83.8125 228.32 83.7598 228.32 83.7012V77.3643H226.729C226.636 78.2842 226.519 79.0928 226.378 79.79C226.243 80.4814 226.085 81.0791 225.903 81.583C225.722 82.0869 225.52 82.5059 225.297 82.8398C225.08 83.168 224.84 83.4287 224.576 83.6221C224.312 83.8154 224.025 83.9531 223.715 84.0352C223.41 84.1172 223.088 84.1582 222.748 84.1582C222.666 84.1582 222.599 84.1465 222.546 84.123C222.493 84.0996 222.452 84.0557 222.423 83.9912C222.394 83.9209 222.373 83.8213 222.361 83.6924C222.35 83.5635 222.344 83.3936 222.344 83.1826C222.344 82.9658 222.347 82.79 222.353 82.6553C222.364 82.5205 222.382 82.418 222.405 82.3477C222.429 82.2715 222.461 82.2217 222.502 82.1982C222.543 82.1748 222.593 82.1631 222.651 82.1631C222.815 82.1631 222.971 82.1309 223.117 82.0664C223.27 81.9961 223.41 81.876 223.539 81.7061C223.674 81.5303 223.8 81.3018 223.917 81.0205C224.034 80.7334 224.143 80.373 224.242 79.9395C224.342 79.5059 224.436 78.9902 224.523 78.3926C224.611 77.7891 224.696 77.0889 224.778 76.292C224.79 76.0518 224.84 75.873 224.928 75.7559C225.021 75.6387 225.171 75.5801 225.376 75.5801H229.92C230.125 75.5801 230.277 75.6387 230.377 75.7559C230.477 75.873 230.526 76.0518 230.526 76.292V83.7012ZM243.341 83.7012C243.341 83.7598 243.323 83.8125 243.288 83.8594C243.253 83.9004 243.194 83.9355 243.112 83.9648C243.03 83.9941 242.919 84.0146 242.778 84.0264C242.638 84.0439 242.456 84.0527 242.233 84.0527C242.022 84.0527 241.847 84.0439 241.706 84.0264C241.565 84.0146 241.451 83.9941 241.363 83.9648C241.281 83.9355 241.223 83.9004 241.188 83.8594C241.152 83.8125 241.135 83.7598 241.135 83.7012V75.8613C241.135 75.8027 241.152 75.7529 241.188 75.7119C241.223 75.665 241.281 75.627 241.363 75.5977C241.451 75.5684 241.565 75.5479 241.706 75.5361C241.847 75.5186 242.022 75.5098 242.233 75.5098C242.456 75.5098 242.638 75.5186 242.778 75.5361C242.919 75.5479 243.03 75.5684 243.112 75.5977C243.194 75.627 243.253 75.665 243.288 75.7119C243.323 75.7529 243.341 75.8027 243.341 75.8613V83.7012ZM234.965 78.2783C235.164 78.2607 235.366 78.2461 235.571 78.2344C235.776 78.2227 236.005 78.2168 236.257 78.2168C236.901 78.2168 237.458 78.2842 237.927 78.4189C238.396 78.5479 238.782 78.7354 239.087 78.9814C239.392 79.2275 239.617 79.5264 239.764 79.8779C239.916 80.2236 239.992 80.6191 239.992 81.0645C239.992 81.5273 239.907 81.9521 239.737 82.3389C239.573 82.7197 239.321 83.0479 238.981 83.3232C238.642 83.5928 238.208 83.8037 237.681 83.9561C237.153 84.1025 236.526 84.1758 235.8 84.1758C235.606 84.1758 235.41 84.1729 235.211 84.167C235.012 84.167 234.815 84.1611 234.622 84.1494C234.435 84.1436 234.25 84.1348 234.068 84.123C233.887 84.1113 233.714 84.0967 233.55 84.0791C233.269 84.0498 233.063 83.9648 232.935 83.8242C232.812 83.6836 232.75 83.4697 232.75 83.1826V75.8613C232.75 75.8027 232.768 75.7529 232.803 75.7119C232.838 75.665 232.896 75.627 232.979 75.5977C233.061 75.5684 233.169 75.5479 233.304 75.5361C233.438 75.5186 233.605 75.5098 233.805 75.5098C234.227 75.5098 234.525 75.5391 234.701 75.5977C234.877 75.6562 234.965 75.7441 234.965 75.8613V78.2783ZM237.733 81.1875C237.733 80.9824 237.701 80.8008 237.637 80.6426C237.578 80.4785 237.479 80.3408 237.338 80.2295C237.203 80.1123 237.024 80.0244 236.802 79.9658C236.579 79.9072 236.307 79.8779 235.984 79.8779C235.785 79.8779 235.601 79.8838 235.431 79.8955C235.267 79.9014 235.111 79.9102 234.965 79.9219V82.4531C235.135 82.4707 235.302 82.4854 235.466 82.4971C235.63 82.5088 235.82 82.5146 236.037 82.5146C236.623 82.5146 237.051 82.3975 237.32 82.1631C237.596 81.9287 237.733 81.6035 237.733 81.1875ZM252.376 83.543C252.423 83.6426 252.443 83.7246 252.438 83.7891C252.438 83.8535 252.396 83.9062 252.314 83.9473C252.232 83.9883 252.106 84.0146 251.937 84.0264C251.767 84.0439 251.541 84.0527 251.26 84.0527C250.996 84.0527 250.782 84.0469 250.618 84.0352C250.46 84.0293 250.334 84.0146 250.24 83.9912C250.152 83.9619 250.085 83.9297 250.038 83.8945C249.997 83.8535 249.965 83.8037 249.941 83.7451L248.491 80.959L247.041 83.7451C247.018 83.8037 246.985 83.8535 246.944 83.8945C246.903 83.9297 246.839 83.9619 246.751 83.9912C246.669 84.0146 246.552 84.0293 246.399 84.0352C246.247 84.0469 246.048 84.0527 245.802 84.0527C245.544 84.0527 245.339 84.0439 245.187 84.0264C245.034 84.0146 244.923 83.9883 244.853 83.9473C244.782 83.9062 244.744 83.8535 244.738 83.7891C244.738 83.7246 244.765 83.6426 244.817 83.543L246.988 79.6846L244.984 76.0635C244.932 75.958 244.902 75.8701 244.896 75.7998C244.896 75.7236 244.935 75.665 245.011 75.624C245.087 75.583 245.207 75.5537 245.371 75.5361C245.541 75.5186 245.77 75.5098 246.057 75.5098C246.314 75.5098 246.52 75.5156 246.672 75.5273C246.83 75.5332 246.953 75.5449 247.041 75.5625C247.129 75.5801 247.193 75.6094 247.234 75.6504C247.275 75.6855 247.311 75.7324 247.34 75.791L248.737 78.4102L250.126 75.791C250.144 75.7441 250.17 75.7031 250.205 75.668C250.24 75.6328 250.296 75.6035 250.372 75.5801C250.448 75.5566 250.551 75.5391 250.68 75.5273C250.814 75.5156 250.996 75.5098 251.225 75.5098C251.482 75.5098 251.688 75.5156 251.84 75.5273C251.998 75.5391 252.109 75.5654 252.174 75.6064C252.244 75.6475 252.276 75.7061 252.271 75.7822C252.271 75.8525 252.238 75.9463 252.174 76.0635L250.223 79.623L252.376 83.543Z" fill="black"/>
</svg>
