<svg width="54" height="48" viewBox="0 0 54 48" fill="none" xmlns="http://www.w3.org/2000/svg">
<path d="M27 7.74997L25.65 9.04996C25.8249 9.23143 26.0346 9.37577 26.2666 9.47436C26.4985 9.57295 26.748 9.62376 27 9.62376C27.252 9.62376 27.5015 9.57295 27.7334 9.47436C27.9654 9.37577 28.1751 9.23143 28.35 9.04996L27 7.74997ZM20.565 39.805C16.775 36.8175 12.6325 33.9 9.345 30.2C6.125 26.57 3.875 22.3375 3.875 16.8425H0.125C0.125 23.5075 2.9 28.5925 6.5425 32.69C10.1175 36.715 14.6775 39.94 18.2425 42.75L20.565 39.805ZM3.875 16.8425C3.875 11.4675 6.9125 6.95746 11.06 5.05997C15.09 3.21746 20.505 3.70497 25.65 9.04996L28.35 6.45247C22.25 0.109965 15.16 -0.937535 9.5 1.64997C3.965 4.18247 0.125 10.0625 0.125 16.8425H3.875ZM18.2425 42.75C19.525 43.76 20.9 44.835 22.2925 45.65C23.685 46.465 25.275 47.125 27 47.125V43.375C26.225 43.375 25.315 43.075 24.185 42.4125C23.0525 41.7525 21.88 40.8425 20.565 39.805L18.2425 42.75ZM35.7575 42.75C39.3225 39.9375 43.8825 36.7175 47.4575 32.69C51.1 28.59 53.875 23.5075 53.875 16.8425H50.125C50.125 22.3375 47.875 26.57 44.655 30.2C41.3675 33.9 37.225 36.8175 33.435 39.805L35.7575 42.75ZM53.875 16.8425C53.875 10.0625 50.0375 4.18247 44.5 1.64997C38.84 -0.937535 31.755 0.109965 25.65 6.44997L28.35 9.04996C33.495 3.70747 38.91 3.21746 42.94 5.05997C47.0875 6.95746 50.125 11.465 50.125 16.8425H53.875ZM33.435 39.805C32.12 40.8425 30.9475 41.7525 29.815 42.4125C28.6825 43.0725 27.775 43.375 27 43.375V47.125C28.725 47.125 30.315 46.4625 31.7075 45.65C33.1025 44.835 34.475 43.76 35.7575 42.75L33.435 39.805Z" fill="black"/>
</svg>
