<svg width="44" height="50" viewBox="0 0 44 50" fill="none" xmlns="http://www.w3.org/2000/svg">
<path d="M8.00023 7.89979C11.726 4.24851 16.7422 2.21512 21.9588 2.24146C27.1754 2.26781 32.1708 4.35177 35.8595 8.0405C39.5482 11.7292 41.6322 16.7246 41.6586 21.9412C41.6849 27.1578 39.6515 32.174 36.0002 35.8998L25.5352 46.3648C24.5976 47.3021 23.3261 47.8287 22.0002 47.8287C20.6744 47.8287 19.4029 47.3021 18.4652 46.3648L8.00023 35.8998C4.28745 32.1866 2.20166 27.1507 2.20166 21.8998C2.20166 16.6489 4.28745 11.613 8.00023 7.89979Z" stroke="black" stroke-width="3" stroke-linejoin="round"/>
<path d="M22 29.3999C26.1421 29.3999 29.5 26.042 29.5 21.8999C29.5 17.7578 26.1421 14.3999 22 14.3999C17.8579 14.3999 14.5 17.7578 14.5 21.8999C14.5 26.042 17.8579 29.3999 22 29.3999Z" stroke="black" stroke-width="3" stroke-linecap="round" stroke-linejoin="round"/>
</svg>
