<svg width="54" height="54" viewBox="0 0 54 54" fill="none" xmlns="http://www.w3.org/2000/svg">
<path fill-rule="evenodd" clip-rule="evenodd" d="M14.655 4.65516C16.0913 3.21878 17.7965 2.07937 19.6731 1.30199C21.5498 0.524621 23.5612 0.124512 25.5925 0.124512C27.6238 0.124512 29.6352 0.524621 31.5119 1.30199C33.3885 2.07937 35.0937 3.21878 36.53 4.65516L49.345 17.4702C51.8545 19.9773 53.426 23.2709 53.7961 26.7989C54.1662 30.3269 53.3123 33.8749 51.3776 36.8482C49.443 39.8216 46.5451 42.0395 43.1696 43.1304C39.7942 44.2213 36.1464 44.1189 32.8375 42.8402C31.4642 46.5544 28.8288 49.6676 25.3923 51.6353C21.9557 53.6029 17.9368 54.2997 14.0384 53.6037C10.14 52.9078 6.61046 50.8634 4.06702 47.8282C1.52359 44.793 0.128222 40.9602 0.125001 37.0002C0.123926 33.5486 1.18127 30.1797 3.15445 27.3478C5.12762 24.5159 7.92173 22.3572 11.16 21.1627C10.0826 18.368 9.83934 15.3208 10.4597 12.3907C11.0801 9.46051 12.5375 6.77334 14.655 4.65516ZM33.88 7.30516C31.682 5.10718 28.7009 3.87237 25.5925 3.87237C22.4841 3.87237 19.503 5.10718 17.305 7.30516C15.107 9.50315 13.8722 12.4842 13.8722 15.5927C13.8722 18.7011 15.107 21.6822 17.305 23.8802L22.94 29.5102C23.48 29.3302 24.24 29.0427 25.165 28.6002C27.1775 27.6277 29.9675 25.9102 32.94 22.9402C35.9125 19.9702 37.6275 17.1777 38.5975 15.1652C38.946 14.4425 39.2507 13.6995 39.51 12.9402L33.88 7.30516ZM42.41 15.8402C42.2817 16.1402 42.1375 16.4568 41.9775 16.7902C40.84 19.1502 38.885 22.2952 35.59 25.5902C32.295 28.8852 29.1475 30.8402 26.79 31.9777C26.4567 32.1377 26.14 32.2827 25.84 32.4127L30.1225 36.6927C31.206 37.8008 32.4986 38.683 33.9254 39.2882C35.3523 39.8933 36.885 40.2094 38.4348 40.2181C39.9846 40.2269 41.5208 39.928 42.9543 39.3389C44.3878 38.7499 45.6903 37.8823 46.7862 36.7863C47.8821 35.6904 48.7497 34.388 49.3388 32.9545C49.9279 31.5209 50.2267 29.9848 50.218 28.4349C50.2093 26.8851 49.8932 25.3524 49.288 23.9256C48.6829 22.4988 47.8007 21.2062 46.6925 20.1227L42.41 15.8402ZM12.9525 24.5102C10.8165 25.2039 8.8943 26.4341 7.3697 28.0832C5.8451 29.7322 4.76914 31.7448 4.24474 33.9285C3.72034 36.1123 3.76505 38.394 4.37459 40.5555C4.98413 42.7171 6.13812 44.686 7.72614 46.274C9.31417 47.8621 11.2831 49.016 13.4446 49.6256C15.6061 50.2351 17.8879 50.2798 20.0716 49.7554C22.2554 49.231 24.268 48.1551 25.917 46.6305C27.566 45.1059 28.7963 43.1836 29.49 41.0477C28.7679 40.5407 28.092 39.971 27.47 39.3452L14.655 26.5302C14.0292 25.9082 13.4595 25.2323 12.9525 24.5102Z" fill="black"/>
</svg>
